<?xml version="1.0" standalone="no"?>
<!DOCTYPE svg PUBLIC "-//W3C//DTD SVG 20010904//EN"
 "http://www.w3.org/TR/2001/REC-SVG-20010904/DTD/svg10.dtd">
<svg version="1.0" xmlns="http://www.w3.org/2000/svg"
 width="561.000000pt" height="625.000000pt" viewBox="0 0 561.000000 625.000000"
 preserveAspectRatio="xMidYMid meet">

<g transform="translate(0.000000,625.000000) scale(0.100000,-0.100000)"
fill="#000000" stroke="none">
<path d="M0 3125 l0 -3125 2805 0 2805 0 0 3125 0 3125 -2805 0 -2805 0 0
-3125z m3024 2781 c167 -45 340 -137 491 -260 82 -68 95 -79 95 -87 0 -4 -42
-39 -92 -78 -51 -38 -106 -80 -121 -93 l-28 -23 21 -95 c12 -52 34 -133 47
-180 14 -47 35 -121 48 -165 12 -44 44 -142 70 -217 26 -76 45 -143 43 -150
-3 -7 -38 -20 -79 -28 l-74 -16 2 -90 c4 -145 6 -148 73 -194 33 -22 74 -58
91 -80 22 -27 58 -52 115 -80 226 -109 346 -329 384 -702 6 -61 19 -127 30
-153 l19 -45 110 0 c106 0 111 -1 116 -22 3 -13 4 -342 3 -732 l-3 -709 -180
-74 c-99 -40 -181 -73 -182 -73 -1 0 -22 -41 -48 -90 -201 -397 -512 -736
-930 -1017 -74 -50 -236 -139 -332 -183 l-72 -32 -139 70 c-357 181 -673 435
-914 737 -110 139 -236 336 -293 460 -21 47 -28 54 -82 75 -32 13 -71 29 -88
36 -16 8 -73 31 -125 51 l-95 38 -3 710 c-1 391 0 720 3 732 5 21 11 22 117
25 l112 3 25 70 c22 64 24 87 26 270 2 161 7 220 24 305 25 120 84 273 135
353 53 82 147 162 251 212 82 39 126 52 325 93 43 9 43 20 11 172 -19 85 -23
137 -24 275 0 209 16 303 81 465 53 134 112 220 219 321 216 204 516 276 817
195z"/>
<path d="M2591 5850 c-41 -10 -115 -39 -165 -64 -232 -117 -393 -349 -441
-636 -29 -169 -14 -438 34 -610 29 -105 28 -120 -9 -120 -53 0 -223 -30 -286
-51 -166 -54 -290 -155 -356 -290 -88 -177 -108 -273 -118 -564 -7 -214 -9
-236 -35 -310 -15 -44 -32 -86 -37 -92 -7 -9 -42 -13 -109 -13 l-99 0 0 -155
c0 -131 2 -155 15 -155 8 0 15 -5 15 -10 0 -6 -7 -13 -15 -16 -23 -9 -23 -592
0 -600 12 -5 15 -24 15 -86 0 -68 -2 -79 -15 -74 -14 5 -15 -11 -13 -126 l3
-131 150 -62 c83 -33 160 -66 172 -73 13 -7 40 -47 61 -90 174 -346 451 -672
777 -913 33 -24 64 -46 70 -49 5 -3 49 -31 96 -62 85 -56 254 -151 316 -177
30 -12 37 -10 165 56 381 196 720 490 966 840 40 56 72 104 72 107 0 3 15 29
34 58 18 29 52 91 76 138 23 47 44 86 45 88 2 2 79 34 171 71 l169 69 0 673 0
674 -85 3 c-131 3 -125 0 -154 96 -14 46 -26 100 -26 120 0 19 -7 84 -16 143
-40 272 -158 471 -325 551 -37 18 -74 32 -83 32 -8 0 -33 24 -56 54 -29 40
-57 64 -102 88 -62 32 -63 34 -71 83 -13 89 -34 310 -30 318 2 4 35 7 73 7 38
0 71 4 75 10 3 5 -15 69 -40 142 -25 73 -50 149 -55 168 -5 19 -21 76 -35 125
-15 50 -40 149 -56 220 l-28 130 52 48 c28 26 73 62 99 80 26 18 49 37 52 44
3 7 -31 39 -75 73 -102 76 -138 95 -152 81 -19 -19 -34 -12 -30 12 4 20 -3 28
-50 51 -186 91 -425 121 -606 76z m329 -95 c97 -17 183 -41 223 -61 l27 -15
-26 -47 c-14 -26 -31 -53 -36 -59 -17 -21 -31 -15 -24 12 19 80 28 70 -86 89
-57 9 -134 17 -173 17 -47 1 -73 6 -80 16 -9 11 -22 11 -90 -1 -79 -14 -176
-47 -205 -69 -39 -31 -88 -49 -76 -28 12 19 121 84 179 107 52 21 188 48 262
53 11 0 58 -6 105 -14z m396 -156 c24 -16 42 -35 38 -40 -9 -15 -100 -98 -141
-130 -21 -16 -49 -28 -63 -28 l-25 0 24 10 c20 8 22 11 10 26 -12 14 -11 15 7
9 18 -5 31 4 73 51 28 32 51 64 51 71 0 7 -13 15 -30 19 -28 5 -38 21 -23 36
13 13 35 7 79 -24z m-964 -31 c-7 -7 -12 -8 -12 -2 0 14 12 26 19 19 2 -3 -1
-11 -7 -17z m-62 -73 c-7 -9 -15 -13 -17 -11 -7 7 7 26 19 26 6 0 6 -6 -2 -15z
m815 -65 c3 -5 1 -10 -4 -10 -6 0 -11 5 -11 10 0 6 2 10 4 10 3 0 8 -4 11 -10z
m-213 -69 c69 -12 158 -49 158 -66 0 -7 -12 -18 -27 -24 -16 -6 -43 -21 -62
-33 -29 -18 -50 -21 -161 -23 -127 -3 -191 -16 -245 -52 -26 -17 -49 -17 -42
1 3 8 3 17 -1 20 -12 12 -67 -60 -99 -129 l-33 -70 0 40 c0 97 97 229 211 287
102 52 191 67 301 49z m361 -154 l18 -97 -30 -53 c-17 -28 -39 -62 -48 -74
l-18 -22 -85 25 c-148 45 -156 44 -92 -11 l37 -33 -17 -30 c-26 -44 -23 -51
27 -64 25 -7 45 -17 45 -23 0 -6 -16 -37 -35 -70 -20 -32 -33 -61 -29 -64 3
-3 31 22 62 57 61 67 80 74 132 47 25 -13 29 -21 34 -77 37 -413 42 -488 30
-488 -4 0 -26 17 -49 38 -76 67 -96 82 -110 82 -7 0 -15 8 -17 18 -3 10 -26
32 -52 48 -81 50 -93 62 -76 74 13 8 11 13 -12 32 -14 13 -34 28 -43 33 -18
11 -18 10 -15 156 2 53 0 102 -4 108 -4 6 -20 11 -36 11 -26 0 -60 22 -60 38
0 3 8 15 19 26 10 12 22 31 26 44 6 21 5 21 -21 11 -16 -5 -33 -14 -39 -18 -5
-5 -19 -11 -30 -14 -11 -2 -64 -21 -117 -41 -54 -20 -98 -32 -98 -27 0 5 44
37 98 72 190 123 348 231 452 309 58 43 112 78 120 77 11 -2 20 -30 33 -100z
m-746 -73 c-3 -3 -12 -4 -19 -1 -8 3 -5 6 6 6 11 1 17 -2 13 -5z m839 -299
c25 -89 36 -145 29 -145 -6 0 -25 12 -41 28 -25 21 -36 47 -58 126 -25 93 -26
100 -10 117 9 11 22 19 28 19 6 0 29 -65 52 -145z m-696 -206 c0 -20 -4 -28
-12 -23 -7 5 -9 2 -5 -9 3 -9 1 -17 -5 -19 -8 -3 -8 -9 0 -24 10 -17 11 -17
12 -1 0 10 8 17 18 17 10 0 23 5 30 12 7 7 12 8 12 3 0 -4 -16 -23 -36 -40
-32 -29 -35 -35 -24 -55 13 -24 4 -43 -10 -20 -5 8 -10 12 -12 10 -19 -29 -30
-48 -37 -66 -5 -12 -16 -24 -24 -27 -14 -5 -147 56 -157 74 -4 5 -4 27 -1 49
5 35 13 44 75 86 82 54 100 63 144 63 29 1 32 -2 32 -30z m185 2 c3 -5 1 -12
-5 -16 -5 -3 -10 1 -10 9 0 18 6 21 15 7z m-118 -23 c-3 -8 -6 -5 -6 6 -1 11
2 17 5 13 3 -3 4 -12 1 -19z m116 -48 c-7 -28 -13 -25 -13 6 0 14 4 23 9 20 5
-3 7 -15 4 -26z m24 -12 c-3 -8 -6 -5 -6 6 -1 11 2 17 5 13 3 -3 4 -12 1 -19z
m-160 -37 c-1 -16 -5 -27 -9 -25 -3 2 -8 -2 -11 -8 -2 -7 -7 -10 -11 -6 -7 6
20 68 29 68 2 0 3 -13 2 -29z m239 -62 c3 -6 -5 -3 -20 6 -14 10 -26 19 -26
22 0 7 39 -17 46 -28z m-240 -15 c-3 -9 -6 -21 -6 -27 0 -16 -20 14 -20 31 0
6 7 12 16 12 11 0 14 -5 10 -16z m-256 -87 c260 -150 430 -265 430 -292 0 -3
-7 -5 -15 -5 -8 0 -15 9 -15 20 0 11 -5 20 -11 20 -16 0 -81 32 -102 50 -18
15 -126 76 -227 127 -30 15 -57 30 -60 33 -3 3 -26 15 -52 28 -35 17 -56 21
-83 16 -68 -12 -116 20 -54 37 65 18 113 10 189 -34z m-264 -37 c72 -12 135
-30 152 -43 18 -14 -6 -29 -27 -18 -58 30 -286 41 -441 21 -127 -16 -136 -18
-152 -33 -8 -6 -29 -20 -48 -30 l-35 -18 30 28 c49 45 126 75 245 96 50 9 218
7 276 -3z m-249 -56 c-3 -3 -12 -4 -19 -1 -8 3 -5 6 6 6 11 1 17 -2 13 -5z
m46 -11 c-7 -2 -19 -2 -25 0 -7 3 -2 5 12 5 14 0 19 -2 13 -5z m612 -71 c-3
-3 -11 0 -18 7 -9 10 -8 11 6 5 10 -3 15 -9 12 -12z m-1045 -57 c-7 -9 -15
-13 -19 -10 -3 3 1 10 9 15 21 14 24 12 10 -5z m639 -4 c50 -10 52 -31 3 -31
-51 0 -148 -30 -204 -63 -47 -28 -95 -74 -86 -83 4 -3 47 11 97 31 167 66 292
77 317 26 13 -26 8 -35 -53 -96 -57 -57 -266 -142 -475 -193 -60 -15 -108 -29
-108 -32 0 -4 16 -13 35 -20 20 -8 41 -20 46 -27 6 -6 33 -19 60 -28 28 -10
53 -23 56 -31 6 -17 -25 -124 -37 -124 -5 0 -21 -23 -36 -51 -31 -56 -80 -92
-86 -62 -2 13 -13 8 -47 -25 -40 -38 -113 -73 -176 -85 -14 -2 -6 -8 25 -16
25 -7 51 -15 59 -17 30 -9 0 -16 -41 -10 -34 6 -49 15 -71 44 -28 36 -29 39
-25 147 3 102 6 115 38 180 19 39 39 70 45 70 5 0 13 -17 17 -38 10 -50 46
-119 59 -112 5 4 7 10 4 15 -10 16 -7 185 4 235 20 88 90 214 156 280 117 117
248 153 424 116z m411 -11 c13 -9 13 -10 0 -10 -8 0 -22 5 -30 10 -13 9 -13
10 0 10 8 0 22 -5 30 -10z m823 -19 c35 -23 21 -35 -29 -25 -36 7 -129 -9
-170 -28 -25 -12 -67 -1 -61 15 6 20 119 56 177 56 38 1 64 -5 83 -18z m-733
-26 c14 -8 19 -14 10 -14 -8 0 -24 6 -34 14 -25 19 -9 19 24 0z m760 -45 c38
-1 183 -54 255 -95 58 -32 145 -115 145 -138 0 -12 -23 6 -71 53 -19 19 -46
40 -60 46 -13 6 -49 22 -79 36 -59 27 -92 37 -210 64 -100 22 -100 22 -100 31
0 19 45 28 70 16 14 -7 36 -13 50 -13z m-165 0 c-3 -5 -12 -10 -18 -10 -7 0
-6 4 3 10 19 12 23 12 15 0z m-929 -92 c7 -8 -27 -68 -38 -68 -4 0 -5 6 -2 14
3 8 0 17 -5 21 -6 3 -8 11 -4 18 4 7 9 4 15 -9 7 -15 8 -14 5 7 -4 25 12 34
29 17z m974 1 c-25 -4 -58 -7 -75 -7 l-30 0 30 8 c17 4 50 8 75 8 l45 -1 -45
-8z m-397 -83 c94 -26 167 -65 226 -123 57 -55 71 -63 71 -39 0 26 53 78 98
97 128 55 332 -14 392 -132 26 -50 25 -57 -7 -107 -22 -33 -34 -42 -56 -42
-15 0 -26 -4 -22 -9 3 -6 -5 -9 -17 -9 -13 1 -36 0 -53 -1 l-30 -4 35 -7 35
-7 -43 -2 c-27 0 -41 3 -37 9 8 12 -7 13 -20 2 -14 -13 -165 3 -174 17 -10 16
-85 33 -89 21 -2 -5 -12 -4 -22 3 -15 9 -22 9 -32 -1 -6 -6 -22 -12 -34 -12
-12 0 -24 -5 -26 -10 -2 -6 -53 -13 -113 -16 -90 -4 -121 -2 -170 14 -73 22
-83 45 -28 60 25 7 30 11 13 10 -14 -1 -32 2 -40 5 -8 3 -40 8 -70 12 -77 9
-161 44 -206 85 -47 43 -70 100 -54 130 13 24 77 58 133 70 62 13 273 4 340
-14z m808 14 c5 0 9 -4 9 -10 0 -14 -13 -12 -36 6 -17 14 -17 15 -1 10 10 -3
23 -6 28 -6z m-1431 -19 c0 -5 -17 -20 -37 -32 -21 -13 -39 -27 -41 -31 -2 -4
-8 -8 -13 -8 -6 0 -29 -9 -51 -20 -46 -22 -58 -24 -58 -11 0 5 15 13 33 16 17
4 43 18 56 31 13 13 30 24 37 24 8 0 14 7 14 15 0 8 6 12 14 9 8 -3 17 -1 21
5 8 13 25 14 25 2z m-193 -72 c-14 -8 -22 -8 -30 0 -8 8 -3 11 19 11 25 -1 27
-2 11 -11z m-79 -26 c-10 -2 -26 -2 -35 0 -10 3 -2 5 17 5 19 0 27 -2 18 -5z
m408 -38 c0 -37 -12 -48 -18 -17 -5 21 2 52 11 52 4 0 7 -16 7 -35z m-359 19
c-3 -3 -12 -4 -19 -1 -8 3 -5 6 6 6 11 1 17 -2 13 -5z m-117 -8 c0 -2 -9 -6
-20 -9 -11 -3 -20 -1 -20 4 0 5 9 9 20 9 11 0 20 -2 20 -4z m50 -13 c-57 -18
-70 -21 -70 -13 0 9 29 17 65 18 13 0 15 -1 5 -5z m-197 -30 c-7 -2 -21 -2
-30 0 -10 3 -4 5 12 5 17 0 24 -2 18 -5z m687 -53 c8 -5 12 -12 9 -15 -8 -8
-39 5 -39 16 0 11 11 11 30 -1z m50 -17 c0 -5 -5 -15 -10 -23 -8 -12 -10 -11
-10 8 0 12 5 22 10 22 6 0 10 -3 10 -7z m50 -45 c0 -6 -7 -7 -16 -4 -9 3 -18
6 -20 6 -3 0 -3 4 1 10 7 11 35 2 35 -12z m-640 -8 c0 -6 -12 -32 -26 -58 -14
-26 -23 -36 -19 -22 4 14 8 35 9 48 0 12 5 22 9 22 5 0 5 5 2 10 -3 6 1 10 9
10 9 0 16 -5 16 -10z m705 -30 c3 -5 2 -10 -4 -10 -5 0 -13 5 -16 10 -3 6 -2
10 4 10 5 0 13 -4 16 -10z m-765 -30 c0 -5 -5 -10 -11 -10 -5 0 -7 5 -4 10 3
6 8 10 11 10 2 0 4 -4 4 -10z m597 -12 c18 -7 33 -16 33 -20 0 -4 5 -8 11 -8
5 0 7 5 4 10 -4 7 8 8 37 3 24 -4 62 -7 85 -7 40 1 43 0 48 -30 6 -30 8 -31
46 -28 21 2 39 8 39 13 0 14 57 10 72 -5 12 -11 17 -11 32 -1 13 10 25 10 52
2 25 -8 38 -7 46 1 9 9 9 12 0 12 -7 0 -12 4 -12 9 0 5 11 4 25 -2 14 -7 25
-15 25 -18 0 -3 -19 -12 -42 -20 -50 -16 -285 -20 -296 -4 -4 6 -20 11 -37 13
-52 4 -119 25 -144 44 -13 10 -29 18 -36 18 -7 0 -18 7 -25 15 -15 18 -7 19
37 3z m263 -3 c-13 -16 -40 -20 -40 -7 0 14 12 22 33 22 16 0 17 -3 7 -15z
m497 -5 c1 -11 -2 -18 -8 -15 -11 7 -12 35 -1 35 4 0 8 -9 9 -20z m-134 -31
c-11 -12 -27 -19 -34 -17 -9 3 -3 10 16 20 41 22 43 21 18 -3z m-1223 -9 c0
-5 -5 -10 -11 -10 -5 0 -7 5 -4 10 3 6 8 10 11 10 2 0 4 -4 4 -10z m1414 -6
c4 -12 14 -15 33 -11 18 3 31 0 39 -11 11 -15 14 -15 33 2 15 13 24 16 33 8 7
-5 51 -13 98 -17 64 -6 79 -10 62 -16 -35 -13 -245 -6 -250 9 -2 7 -8 10 -13
7 -12 -8 -71 24 -64 35 9 15 22 12 29 -6z m-1456 -24 c11 0 13 -3 6 -8 -6 -4
-14 -19 -18 -34 -7 -30 -112 -138 -133 -138 -7 0 -14 9 -14 20 -1 11 -2 25 -3
30 -1 6 4 9 9 8 6 -2 9 -9 9 -15 -2 -16 12 -17 21 -2 4 5 18 14 31 19 14 6 27
18 31 27 4 10 14 23 22 30 10 7 16 27 15 55 0 23 1 35 4 26 2 -10 11 -18 20
-18z m-60 -65 c-7 -16 -15 -22 -21 -16 -6 6 -4 15 4 25 21 23 30 19 17 -9z
m-128 -80 c-13 -16 -40 -21 -40 -7 0 8 42 30 49 25 2 -1 -2 -9 -9 -18z m15
-44 c-6 -5 -23 -12 -40 -16 -29 -6 -29 -6 -11 9 21 17 67 23 51 7z m660 -132
c0 -62 -3 -73 -23 -90 -30 -24 -97 -24 -100 0 -1 9 -4 32 -8 52 -4 24 -1 47
10 67 14 27 22 31 63 35 27 2 50 4 53 5 3 1 5 -30 5 -69z m634 44 c0 -16 1
-35 2 -43 9 -70 -20 -111 -79 -108 -21 0 -39 6 -40 12 -1 6 -4 32 -8 58 -9 68
11 96 73 101 27 2 49 4 50 5 1 1 2 -10 2 -25z m-1169 -13 c0 -16 4 -30 9 -30
5 0 21 14 34 30 24 28 47 39 47 23 0 -4 -12 -19 -27 -35 l-27 -28 33 -45 c38
-53 18 -65 -22 -14 -27 35 -47 32 -47 -7 0 -13 -4 -24 -10 -24 -6 0 -10 33
-10 80 0 47 4 80 10 80 6 0 10 -13 10 -30z m246 -27 l39 -58 3 58 c2 31 7 57
12 57 13 0 13 -157 0 -165 -5 -3 -26 20 -47 51 l-38 58 -3 -52 c-2 -37 -7 -52
-18 -52 -11 0 -14 17 -14 80 0 99 12 103 66 23z m489 35 c18 -27 1 -39 -19
-13 -7 10 -22 16 -36 13 -48 -6 -52 -94 -7 -122 15 -9 22 -7 38 13 14 17 23
21 30 14 16 -16 -25 -53 -56 -53 -28 0 -64 31 -66 58 -5 77 16 112 67 112 23
0 38 -7 49 -22z m125 -8 c0 -16 4 -30 8 -30 5 0 21 14 37 30 42 44 65 38 26
-6 l-32 -35 31 -42 c37 -50 21 -64 -19 -16 -30 35 -51 33 -51 -7 0 -13 -4 -24
-10 -24 -6 0 -10 33 -10 80 0 47 4 80 10 80 6 0 10 -13 10 -30z m420 -34 c0
-69 14 -92 49 -81 17 5 21 16 23 72 2 42 8 68 16 71 9 3 12 -15 12 -67 0 -64
-2 -72 -25 -87 -20 -13 -33 -15 -58 -8 l-32 10 -3 77 c-2 49 1 77 8 77 6 0 10
-26 10 -64z m310 54 c0 -5 -11 -10 -25 -10 -24 0 -25 -2 -25 -70 0 -56 -3 -70
-15 -70 -12 0 -15 14 -15 70 0 63 -2 70 -19 70 -11 0 -23 5 -26 10 -4 6 18 10
59 10 37 0 66 -4 66 -10z m205 0 c-3 -5 -15 -10 -26 -10 -17 0 -19 -7 -19 -70
0 -56 -3 -70 -15 -70 -12 0 -15 14 -15 70 0 68 -1 70 -25 70 -14 0 -25 5 -25
10 0 6 29 10 66 10 41 0 63 -4 59 -10z m-1900 -80 c8 -13 -20 -24 -41 -16 -20
8 -9 26 16 26 10 0 22 -5 25 -10z m2028 -5 c-2 -5 -12 -9 -23 -8 -30 1 -32 2
-25 14 8 13 51 8 48 -6z m-980 -252 c-7 -2 -19 -2 -25 0 -7 3 -2 5 12 5 14 0
19 -2 13 -5z m-73 -108 l2 30 8 -30 8 -30 2 30 c1 26 3 27 10 10 5 -11 9 -15
9 -9 1 6 13 11 29 11 15 0 21 -2 15 -4 -23 -8 -14 -33 12 -33 14 0 25 -6 25
-12 0 -9 4 -8 10 2 8 12 10 12 10 1 0 -11 3 -11 15 -1 13 11 15 5 16 -46 0
-33 4 -129 8 -215 8 -181 16 -203 79 -214 41 -7 103 12 117 34 3 7 8 91 9 189
4 238 3 229 22 229 12 0 15 -8 12 -28 -3 -20 -1 -26 10 -22 8 3 18 0 23 -8 6
-10 10 -5 15 19 9 46 23 40 17 -8 -4 -26 -2 -40 6 -40 6 0 11 7 11 16 0 30 20
2 21 -29 0 -18 2 -91 5 -162 4 -115 3 -135 -15 -175 -42 -95 -124 -140 -255
-140 -141 0 -229 50 -260 149 -15 49 -28 410 -18 486 l6 40 7 -35 6 -35 3 30z
m-597 -108 c-3 -6 -1 -7 5 -3 7 4 13 -10 18 -43 4 -28 12 -55 18 -59 17 -14
69 5 85 30 17 28 32 88 21 88 -4 0 -10 11 -12 25 -3 14 -1 25 3 25 5 0 9 -8 9
-17 0 -14 2 -15 9 -5 12 19 161 6 161 -13 0 -7 5 -15 10 -17 17 -5 -16 -73
-50 -101 -16 -14 -30 -30 -30 -34 0 -5 38 -49 85 -98 147 -155 199 -215 189
-224 -5 -5 -45 -16 -89 -25 -44 -10 -88 -20 -97 -22 -12 -3 -51 34 -134 126
-64 71 -120 130 -124 130 -7 0 0 -37 39 -209 11 -47 18 -88 16 -92 -8 -12
-186 -42 -194 -33 -9 9 -28 95 -82 369 -16 83 -33 170 -38 195 -6 28 -6 49 0
55 5 5 9 1 9 -13 0 -19 3 -21 19 -13 21 12 81 10 81 -1 0 -5 5 -8 10 -8 6 0
10 7 10 15 0 8 5 15 10 15 6 0 10 -9 10 -20 0 -11 5 -20 10 -20 6 0 10 6 9 13
-1 6 0 21 1 32 1 15 4 13 10 -9 5 -16 6 -34 3 -39z m1429 20 c2 -18 9 -22 38
-20 51 3 101 -15 98 -35 -2 -11 4 -17 17 -17 15 0 20 6 18 25 l-2 25 11 -25
c15 -36 25 -62 32 -84 6 -18 9 -17 40 13 37 36 66 34 66 -5 0 -13 4 -24 10
-24 5 0 7 6 5 13 -3 7 4 13 21 13 l26 2 -24 -27 c-38 -43 -41 -47 -35 -35 4 7
1 14 -6 17 -10 4 -13 -2 -9 -18 2 -15 -4 -31 -19 -46 -20 -20 -21 -26 -12 -58
14 -46 105 -301 131 -367 12 -29 19 -54 16 -56 -5 -5 -124 14 -184 29 -34 9
-36 11 -80 141 -29 83 -49 129 -56 124 -6 -4 -45 -53 -88 -110 -55 -74 -82
-102 -94 -98 -9 2 -35 7 -57 11 -54 8 -75 15 -75 23 0 4 63 75 140 157 158
169 152 152 104 271 -14 37 -27 77 -28 89 0 13 -4 21 -8 18 -5 -2 -8 3 -8 11
0 22 -1 28 -11 53 -6 17 -5 21 6 17 8 -3 15 -15 17 -27z m-2182 -97 c0 -5 -5
-10 -11 -10 -5 0 -7 5 -4 10 3 6 8 10 11 10 2 0 4 -4 4 -10z m-30 -41 c0 -5
-6 -9 -14 -9 -14 0 -32 -48 -21 -58 3 -3 5 0 5 6 0 7 7 12 16 12 8 0 12 5 9
10 -3 6 3 10 14 10 12 0 21 5 21 12 0 6 9 2 20 -10 12 -12 26 -22 33 -21 9 0
9 2 0 6 -20 8 -15 29 7 30 17 2 20 -4 20 -41 0 -88 72 -258 140 -328 43 -44
50 -48 94 -48 50 0 77 11 171 72 33 21 64 39 68 41 10 2 38 -73 31 -84 -14
-24 -172 -123 -231 -145 -54 -21 -80 -25 -128 -21 -181 14 -318 193 -318 417
-1 93 24 173 50 163 7 -3 13 -9 13 -14z m1430 -537 c0 -4 -28 -34 -61 -67 -58
-57 -149 -181 -149 -204 0 -14 -37 -33 -44 -22 -3 5 -17 12 -30 15 -14 3 -36
10 -50 16 l-25 9 19 53 c40 112 79 192 97 199 25 10 243 11 243 1z m255 -53
c91 -35 129 -56 200 -113 119 -96 239 -231 233 -263 -3 -16 -84 -78 -103 -78
-21 0 -105 -38 -105 -47 0 -14 -40 -3 -125 31 -38 16 -137 55 -220 87 -209 80
-245 96 -245 108 0 23 61 115 112 171 29 32 80 76 112 97 33 21 60 38 60 38 1
0 37 -14 81 -31z m-659 -16 c-17 -70 -49 -133 -68 -133 -30 0 -118 41 -118 55
0 15 66 55 136 84 27 11 51 20 53 20 2 1 0 -11 -3 -26z m-191 -208 c44 -18 81
-37 82 -42 4 -11 -83 -221 -99 -240 -7 -8 -16 -9 -29 -3 -10 6 -28 15 -39 20
-11 6 -27 10 -35 10 -8 0 -15 4 -15 9 0 5 -12 12 -27 16 -35 8 -103 62 -103
81 0 36 133 184 164 184 12 -1 57 -16 101 -35z m275 -108 c25 -12 44 -28 43
-34 -2 -7 -10 -57 -20 -110 -9 -54 -19 -102 -23 -106 -7 -8 -156 16 -167 27
-7 7 5 45 44 141 16 39 32 78 36 88 8 23 32 21 87 -6z m-710 -125 c186 -191
358 -327 576 -456 81 -48 357 -186 372 -186 28 0 345 171 467 251 182 120 302
218 484 393 90 87 95 85 20 -9 -54 -68 -165 -178 -254 -251 -32 -27 -70 -58
-83 -69 -95 -80 -369 -254 -554 -350 l-95 -49 -64 34 c-35 18 -70 40 -77 47
-7 7 -20 13 -28 13 -18 0 -300 177 -408 257 -44 32 -83 59 -87 61 -11 4 -95
82 -191 177 -108 106 -216 245 -191 245 4 0 55 -49 113 -108z m946 35 c32 -13
115 -46 184 -72 163 -62 170 -69 88 -84 -115 -19 -252 -32 -313 -29 l-60 3 2
61 c1 65 19 144 32 144 4 0 34 -11 67 -23z m614 -97 c0 -5 -4 -10 -10 -10 -5
0 -10 5 -10 10 0 6 5 10 10 10 6 0 10 -4 10 -10z m-1190 -25 c14 -19 14 -19
-2 -6 -10 7 -18 18 -18 24 0 6 1 8 3 6 1 -2 9 -13 17 -24z m992 -53 c26 -10
50 -21 54 -25 14 -14 -31 -6 -50 8 -11 8 -30 15 -42 15 -13 0 -26 5 -29 10 -9
15 14 12 67 -8z m-832 -52 c0 -5 -4 -10 -9 -10 -6 0 -13 5 -16 10 -3 6 1 10 9
10 9 0 16 -4 16 -10z m817 -4 c0 -8 -6 -12 -15 -8 -11 4 -14 1 -9 -11 4 -11 0
-20 -12 -26 -15 -9 -17 -7 -14 13 3 13 15 28 26 34 12 6 22 11 23 11 0 1 1 -5
1 -13z m-477 -42 c0 -27 -4 -43 -10 -39 -5 3 -10 24 -10 46 0 21 5 39 10 39 6
0 10 -21 10 -46z m-310 26 c0 -5 -2 -10 -4 -10 -3 0 -8 5 -11 10 -3 6 -1 10 4
10 6 0 11 -4 11 -10z m-380 -60 c0 -5 -4 -10 -10 -10 -5 0 -10 5 -10 10 0 6 5
10 10 10 6 0 10 -4 10 -10z m30 -30 c0 -5 -4 -10 -10 -10 -5 0 -10 5 -10 10 0
6 5 10 10 10 6 0 10 -4 10 -10z m656 -25 c-1 -29 -16 -35 -16 -7 0 16 8 32 16
32 1 0 1 -11 0 -25z m-586 -45 c0 -5 -4 -10 -10 -10 -5 0 -10 5 -10 10 0 6 5
10 10 10 6 0 10 -4 10 -10z m670 -50 c12 -8 11 -10 -7 -10 -13 0 -23 5 -23 10
0 13 11 13 30 0z m-355 -220 c3 -5 1 -10 -4 -10 -6 0 -11 5 -11 10 0 6 2 10 4
10 3 0 8 -4 11 -10z m306 -207 c13 -16 12 -17 -3 -4 -10 7 -18 15 -18 17 0 8
8 3 21 -13z"/>
<path d="M2590 3426 c0 -10 9 -16 24 -16 13 0 39 -2 57 -6 34 -5 34 -5 9 9
-14 8 -40 18 -57 22 -26 5 -33 3 -33 -9z"/>
<path d="M2251 3096 c-7 -8 -11 -32 -9 -53 l3 -38 28 42 c15 24 27 47 27 53 0
15 -36 12 -49 -4z"/>
<path d="M2285 3033 c-27 -41 -20 -62 14 -44 15 9 21 21 21 46 0 19 -2 35 -5
35 -2 0 -16 -17 -30 -37z"/>
<path d="M2892 3102 c-16 -11 -27 -77 -14 -86 8 -5 62 71 62 88 0 9 -33 7 -48
-2z"/>
<path d="M2928 3039 c-28 -43 -26 -65 5 -53 19 7 30 41 25 74 -3 18 -7 15 -30
-21z"/>
<path d="M3795 2470 c-3 -5 -1 -10 4 -10 6 0 11 5 11 10 0 6 -2 10 -4 10 -3 0
-8 -4 -11 -10z"/>
</g>
</svg>
